<svg width="96" height="96" viewBox="0 0 480 480" fill="none" xmlns="http://www.w3.org/2000/svg">
<path d="M223.183 400C196.194 400 182.699 388.353 182.699 365.059C182.699 357.41 183.737 348.718 185.813 338.983C188.235 328.901 191.522 316.037 195.675 300.391C200.519 284.05 204.152 270.143 206.574 258.67C208.997 247.197 210.208 236.94 210.208 227.901C210.208 204.259 199.827 192.438 179.066 192.438C173.529 192.438 167.82 193.133 161.938 194.524L120.415 391.134H45.6747L116.263 59.4524L193.08 49.0222L167.647 169.492H171.799C185.294 169.492 197.751 164.798 209.17 155.411C220.588 146.023 229.412 134.376 235.64 120.469C242.215 106.215 245.502 92.3077 245.502 78.7484C245.502 62.7553 240.657 49.7175 230.969 39.635C221.626 29.2047 207.439 23.9896 188.408 23.9896C160.381 23.9896 135.813 29.0309 114.706 39.1135C93.5986 49.196 77.1626 63.7984 65.3979 82.9205C53.9792 102.043 48.2699 124.641 48.2699 150.717C48.2699 163.581 49.481 172.621 51.9031 177.836C54.3253 182.703 55.5363 185.485 55.5363 186.18C36.8512 186.18 22.8374 182.355 13.4948 174.707C4.49827 166.71 0 153.672 0 135.593C0 113.342 8.99654 91.7862 26.9896 70.9257C45.3287 49.7175 68.6851 32.6815 97.0588 19.8175C125.433 6.60583 153.806 0 182.18 0C208.131 0 229.931 3.82442 247.578 11.4733C265.225 19.1221 278.374 29.3786 287.024 42.2425C295.675 54.7588 300 68.492 300 83.442C300 99.7827 294.983 116.123 284.948 132.464C274.913 148.805 261.246 162.19 243.945 172.621C257.093 176.445 266.263 182.877 271.453 191.917C276.99 200.608 279.758 211.56 279.758 224.772C279.758 234.854 278.547 245.632 276.125 257.106C273.702 268.231 270.242 282.138 265.744 298.827C262.976 309.605 260.381 320.209 257.958 330.639C255.536 341.069 254.325 349.761 254.325 356.715C254.325 364.711 256.055 371.838 259.516 378.097C263.322 384.355 268.339 388.701 274.567 391.134C253.46 397.045 236.332 400 223.183 400Z" fill="#FF00FF"/>
<path d="M303.282 126.462H298.233C273.268 126.462 253.773 134.473 239.748 150.494C226.003 166.159 219.13 194.108 219.13 234.339C219.13 247.512 220.112 256.769 222.076 262.109C224.039 267.094 225.021 269.942 225.021 270.654C209.874 270.654 198.513 266.738 190.94 258.905C183.647 250.717 180 237.365 180 218.852C180 193.574 184.909 170.61 194.727 149.96C204.544 128.954 220.112 112.043 241.431 99.2256C263.029 86.4085 290.379 80 323.478 80C341.992 80 361.907 82.1362 383.226 86.4085C401.178 90.3249 417.167 92.283 431.192 92.283C449.144 92.283 465.414 88.5447 480 81.0681C479.439 104.21 474.811 121.299 466.115 132.336C457.419 143.373 444.516 148.892 427.405 148.892C418.429 148.892 409.453 148.002 400.477 146.222C391.501 144.441 378.738 141.415 362.188 137.143L304.123 480H243.534L303.282 126.462Z" fill="#00B1D1"/>
</svg>
